<svg xmlns="http://www.w3.org/2000/svg" xmlns:xlink="http://www.w3.org/1999/xlink" viewBox="0 0 750 476" width="750" height="476" preserveAspectRatio="xMidYMid meet" style="width: 100%; height: 100%; transform: translate3d(0px, 0px, 0px); content-visibility: visible;"><defs><clipPath id="__lottie_element_3926"><rect width="750" height="476" x="0" y="0"></rect></clipPath><g id="__lottie_element_3938"><g transform="matrix(1,0,0,1,368,425.88299560546875)" opacity="1" style="display: block;"><path fill="rgb(255,0,0)" fill-opacity="1" d=" M-124.74,34.18 C-122,34.68 -104.05,35.09 -84.69,35.09 C-84.69,35.09 66.69,35.09 66.69,35.09 C86.05,35.09 109.45,32.55 118.89,29.42 C118.89,29.42 118.89,29.42 118.89,29.42 C128.33,26.29 136,20.98 136,17.58 C136,17.58 136,17.58 136,17.58 C136,14.17 133.58,6.3 130.6,0.02 C130.6,0.02 130.6,0.02 130.6,0.02 C127.62,-6.27 119.75,-12.19 113.04,-13.19 C113.04,-13.19 113.04,-13.19 113.04,-13.19 C106.33,-14.2 87.15,-19.3 70.25,-24.58 C70.25,-24.58 71.16,-32.03 39.62,-34.15 C8.1,-36.27 -15.32,-35.23 -32.42,-26.85 C-49.54,-18.49 -52.24,-12.77 -66.64,-11.37 C-81.06,-9.97 -103.58,-6.81 -115.28,-4.07 C-127,-1.35 -129.7,2.29 -130.6,4.13 C-131.5,5.95 -132.4,10.49 -133.3,12.33 C-134.2,14.15 -134.65,14.15 -134.65,14.15 C-135.4,15.15 -136,16.54 -136,17.26 C-136,17.26 -136,17.26 -136,17.26 C-136,17.97 -135.4,19.6 -134.65,20.9 C-134.65,20.9 -134.65,20.9 -134.65,20.9 C-133.9,22.19 -133.3,23.65 -133.3,24.16 C-133.3,24.16 -133.3,24.16 -133.3,24.16 C-133.3,24.66 -133.7,26.09 -134.2,27.35 C-134.2,27.35 -134.2,27.35 -134.2,27.35 C-134.7,28.6 -133.89,30.44 -132.4,31.45 C-132.4,31.45 -132.4,31.45 -132.4,31.45 C-130.91,32.45 -127.48,33.67 -124.74,34.18 C-124.74,34.18 -124.74,34.18 -124.74,34.18z"></path><g opacity="1" transform="matrix(2,0,0,2,0,0)"><path fill="rgb(0,0,0)" fill-opacity="1" d=" M-62.369998931884766,17.08799934387207 C-61.001285552978516,17.339113235473633 -52.02718734741211,17.542999267578125 -42.34299850463867,17.542999267578125 C-42.34299850463867,17.542999267578125 33.34299850463867,17.542999267578125 33.34299850463867,17.542999267578125 C43.02718734741211,17.542999267578125 54.72349548339844,16.27263641357422 59.44499969482422,14.708000183105469 C59.44499969482422,14.708000183105469 59.44499969482422,14.708000183105469 59.44499969482422,14.708000183105469 C64.16650390625,13.143362998962402 68,10.490612030029297 68,8.788000106811523 C68,8.788000106811523 68,8.788000106811523 68,8.788000106811523 C68,7.085388660430908 66.79013061523438,3.1510705947875977 65.30000305175781,0.00800013542175293 C65.30000305175781,0.00800013542175293 65.30000305175781,0.00800013542175293 65.30000305175781,0.00800013542175293 C63.80986785888672,-3.135070323944092 59.87554931640625,-6.094770908355713 56.519996643066406,-6.5970001220703125 C56.519996643066406,-6.5970001220703125 56.519996643066406,-6.5970001220703125 56.519996643066406,-6.5970001220703125 C53.16444778442383,-7.099228858947754 43.57734680175781,-9.651158332824707 35.125,-12.291999816894531 C35.125,-12.291999816894531 35.58000183105469,-16.017000198364258 19.809999465942383,-17.07699966430664 C4.050000190734863,-18.136999130249023 -7.659999847412109,-17.617000579833984 -16.209999084472656,-13.427000045776367 C-24.770000457763672,-9.246999740600586 -26.1200008392334,-6.38700008392334 -33.31999969482422,-5.686999797821045 C-40.529998779296875,-4.986999988555908 -51.790000915527344,-3.4070000648498535 -57.63999938964844,-2.0369999408721924 C-63.5,-0.6769999861717224 -64.8499984741211,1.1430000066757202 -65.30000305175781,2.062999963760376 C-65.75,2.9730000495910645 -66.19999694824219,5.243000030517578 -66.6500015258789,6.163000106811523 C-67.0999984741211,7.072999954223633 -67.32499694824219,7.072999954223633 -67.32499694824219,7.072999954223633 C-67.6975326538086,7.575228691101074 -68,8.272024154663086 -68,8.628000259399414 C-68,8.628000259399414 -68,8.628000259399414 -68,8.628000259399414 C-68,8.983975410461426 -67.6975326538086,9.799517631530762 -67.32499694824219,10.447999954223633 C-67.32499694824219,10.447999954223633 -67.32499694824219,10.447999954223633 -67.32499694824219,10.447999954223633 C-66.95246887207031,11.096482276916504 -66.6500015258789,11.826885223388672 -66.6500015258789,12.07800006866455 C-66.6500015258789,12.07800006866455 -66.6500015258789,12.07800006866455 -66.6500015258789,12.07800006866455 C-66.6500015258789,12.32911491394043 -66.85164642333984,13.04383373260498 -67.10000610351562,13.67300033569336 C-67.10000610351562,13.67300033569336 -67.10000610351562,13.67300033569336 -67.10000610351562,13.67300033569336 C-67.34835815429688,14.302165985107422 -66.945068359375,15.220770835876465 -66.19999694824219,15.722999572753906 C-66.19999694824219,15.722999572753906 -66.19999694824219,15.722999572753906 -66.19999694824219,15.722999572753906 C-65.4549331665039,16.225229263305664 -63.738712310791016,16.836885452270508 -62.369998931884766,17.08799934387207 C-62.369998931884766,17.08799934387207 -62.369998931884766,17.08799934387207 -62.369998931884766,17.08799934387207z"></path></g></g></g><g id="__lottie_element_3944"><g transform="matrix(1,0,0,1,368,425.88299560546875)" opacity="1" style="display: block;"><path fill="rgb(255,0,0)" fill-opacity="1" d=" M-124.74,34.18 C-122,34.68 -104.05,35.09 -84.69,35.09 C-84.69,35.09 66.69,35.09 66.69,35.09 C86.05,35.09 109.45,32.55 118.89,29.42 C118.89,29.42 118.89,29.42 118.89,29.42 C128.33,26.29 136,20.98 136,17.58 C136,17.58 136,17.58 136,17.58 C136,14.17 133.58,6.3 130.6,0.02 C130.6,0.02 130.6,0.02 130.6,0.02 C127.62,-6.27 119.75,-12.19 113.04,-13.19 C113.04,-13.19 113.04,-13.19 113.04,-13.19 C106.33,-14.2 87.15,-19.3 70.25,-24.58 C70.25,-24.58 71.16,-32.03 39.62,-34.15 C8.1,-36.27 -15.32,-35.23 -32.42,-26.85 C-49.54,-18.49 -52.24,-12.77 -66.64,-11.37 C-81.06,-9.97 -103.58,-6.81 -115.28,-4.07 C-127,-1.35 -129.7,2.29 -130.6,4.13 C-131.5,5.95 -132.4,10.49 -133.3,12.33 C-134.2,14.15 -134.65,14.15 -134.65,14.15 C-135.4,15.15 -136,16.54 -136,17.26 C-136,17.26 -136,17.26 -136,17.26 C-136,17.97 -135.4,19.6 -134.65,20.9 C-134.65,20.9 -134.65,20.9 -134.65,20.9 C-133.9,22.19 -133.3,23.65 -133.3,24.16 C-133.3,24.16 -133.3,24.16 -133.3,24.16 C-133.3,24.66 -133.7,26.09 -134.2,27.35 C-134.2,27.35 -134.2,27.35 -134.2,27.35 C-134.7,28.6 -133.89,30.44 -132.4,31.45 C-132.4,31.45 -132.4,31.45 -132.4,31.45 C-130.91,32.45 -127.48,33.67 -124.74,34.18 C-124.74,34.18 -124.74,34.18 -124.74,34.18z"></path><g opacity="1" transform="matrix(2,0,0,2,0,0)"><path fill="rgb(0,0,0)" fill-opacity="1" d=" M-62.369998931884766,17.08799934387207 C-61.001285552978516,17.339113235473633 -52.02718734741211,17.542999267578125 -42.34299850463867,17.542999267578125 C-42.34299850463867,17.542999267578125 33.34299850463867,17.542999267578125 33.34299850463867,17.542999267578125 C43.02718734741211,17.542999267578125 54.72349548339844,16.27263641357422 59.44499969482422,14.708000183105469 C59.44499969482422,14.708000183105469 59.44499969482422,14.708000183105469 59.44499969482422,14.708000183105469 C64.16650390625,13.143362998962402 68,10.490612030029297 68,8.788000106811523 C68,8.788000106811523 68,8.788000106811523 68,8.788000106811523 C68,7.085388660430908 66.79013061523438,3.1510705947875977 65.30000305175781,0.00800013542175293 C65.30000305175781,0.00800013542175293 65.30000305175781,0.00800013542175293 65.30000305175781,0.00800013542175293 C63.80986785888672,-3.135070323944092 59.87554931640625,-6.094770908355713 56.519996643066406,-6.5970001220703125 C56.519996643066406,-6.5970001220703125 56.519996643066406,-6.5970001220703125 56.519996643066406,-6.5970001220703125 C53.16444778442383,-7.099228858947754 43.57734680175781,-9.651158332824707 35.125,-12.291999816894531 C35.125,-12.291999816894531 35.58000183105469,-16.017000198364258 19.809999465942383,-17.07699966430664 C4.050000190734863,-18.136999130249023 -7.659999847412109,-17.617000579833984 -16.209999084472656,-13.427000045776367 C-24.770000457763672,-9.246999740600586 -26.1200008392334,-6.38700008392334 -33.31999969482422,-5.686999797821045 C-40.529998779296875,-4.986999988555908 -51.790000915527344,-3.4070000648498535 -57.63999938964844,-2.0369999408721924 C-63.5,-0.6769999861717224 -64.8499984741211,1.1430000066757202 -65.30000305175781,2.062999963760376 C-65.75,2.9730000495910645 -66.19999694824219,5.243000030517578 -66.6500015258789,6.163000106811523 C-67.0999984741211,7.072999954223633 -67.32499694824219,7.072999954223633 -67.32499694824219,7.072999954223633 C-67.6975326538086,7.575228691101074 -68,8.272024154663086 -68,8.628000259399414 C-68,8.628000259399414 -68,8.628000259399414 -68,8.628000259399414 C-68,8.983975410461426 -67.6975326538086,9.799517631530762 -67.32499694824219,10.447999954223633 C-67.32499694824219,10.447999954223633 -67.32499694824219,10.447999954223633 -67.32499694824219,10.447999954223633 C-66.95246887207031,11.096482276916504 -66.6500015258789,11.826885223388672 -66.6500015258789,12.07800006866455 C-66.6500015258789,12.07800006866455 -66.6500015258789,12.07800006866455 -66.6500015258789,12.07800006866455 C-66.6500015258789,12.32911491394043 -66.85164642333984,13.04383373260498 -67.10000610351562,13.67300033569336 C-67.10000610351562,13.67300033569336 -67.10000610351562,13.67300033569336 -67.10000610351562,13.67300033569336 C-67.34835815429688,14.302165985107422 -66.945068359375,15.220770835876465 -66.19999694824219,15.722999572753906 C-66.19999694824219,15.722999572753906 -66.19999694824219,15.722999572753906 -66.19999694824219,15.722999572753906 C-65.4549331665039,16.225229263305664 -63.738712310791016,16.836885452270508 -62.369998931884766,17.08799934387207 C-62.369998931884766,17.08799934387207 -62.369998931884766,17.08799934387207 -62.369998931884766,17.08799934387207z"></path></g></g></g><mask id="__lottie_element_3944_1" mask-type="alpha"><use xlink:href="#__lottie_element_3944"></use></mask><mask id="__lottie_element_3938_1" mask-type="alpha"><use xlink:href="#__lottie_element_3938"></use></mask></defs><g clip-path="url(#__lottie_element_3926)"><g transform="matrix(1,0,0,1,374.9320068359375,238.2050018310547)" opacity="1" style="display: block;"><g opacity="1" transform="matrix(1,0,0,1,0.06800000369548798,-0.20499999821186066)"><path fill="rgb(255,255,255)" fill-opacity="1" d=" M375,-228 C375,-228 375,228 375,228 C375,233.5189971923828 370.5190124511719,238 365,238 C365,238 -365,238 -365,238 C-370.5190124511719,238 -375,233.5189971923828 -375,228 C-375,228 -375,-228 -375,-228 C-375,-233.5189971923828 -370.5190124511719,-238 -365,-238 C-365,-238 365,-238 365,-238 C370.5190124511719,-238 375,-233.5189971923828 375,-228z"></path></g></g><g transform="matrix(-0.5,0.8660253882408142,-0.8660253882408142,-0.5,375,248)" opacity="1" style="display: block;"><g opacity="1" transform="matrix(1,0,0,1,0,0)"><path stroke-linecap="butt" stroke-linejoin="miter" fill-opacity="0" stroke-miterlimit="4" stroke="rgb(150,175,218)" stroke-opacity="1" stroke-width="1" d=" M-199.76199340820312,-64.9010009765625 C-172.39500427246094,-149.0800018310547 -93.25299835205078,-210 0,-210 C0,-210 0,-210 0,-210 C93.25299835205078,-210 172.39500427246094,-149.0800018310547 199.76199340820312,-64.9010009765625"></path></g></g><g transform="matrix(-0.5,0.8660253882408142,-0.8660253882408142,-0.5,375,248)" opacity="1" style="display: block;"><g opacity="1" transform="matrix(1,0,0,1,0,0)"><path stroke-linecap="butt" stroke-linejoin="miter" fill-opacity="0" stroke-miterlimit="4" stroke="rgb(150,175,218)" stroke-opacity="1" stroke-width="1" d=" M156.0019989013672,-140.52099609375 C189.56100463867188,-103.29499816894531 210,-54.01499938964844 210,0 C210,115.89900207519531 115.89900207519531,210 0,210 C-14.956000328063965,210 -29.548999786376953,208.43299865722656 -43.624000549316406,205.45399475097656"></path></g></g><g transform="matrix(-0.5,0.8660253882408142,-0.8660253882408142,-0.5,375,248)" opacity="1" style="display: block;"><g opacity="1" transform="matrix(1,0,0,1,0,0)"><path stroke-linecap="butt" stroke-linejoin="miter" fill-opacity="0" stroke-miterlimit="4" stroke="rgb(150,175,218)" stroke-opacity="1" stroke-width="1" d=" M43.624000549316406,205.45399475097656 C29.548999786376953,208.43299865722656 14.956000328063965,210 0,210 C-115.89900207519531,210 -210,115.89900207519531 -210,0 C-210,-54.01499938964844 -189.56100463867188,-103.29499816894531 -156.0019989013672,-140.52099609375"></path></g></g><g transform="matrix(0.5,-0.8660253882408142,0.8660253882408142,0.5,375,248)" opacity="1" style="display: block;"><g opacity="1" transform="matrix(1,0,0,1,0,0)"><path stroke-linecap="butt" stroke-linejoin="miter" fill-opacity="0" stroke-miterlimit="4" stroke="rgb(160,183,221)" stroke-opacity="1" stroke-width="1" d=" M-199.76199340820312,-64.9010009765625 C-172.39500427246094,-149.0800018310547 -93.25299835205078,-210 0,-210 C0,-210 0,-210 0,-210 C93.25299835205078,-210 172.39500427246094,-149.0800018310547 199.76199340820312,-64.9010009765625"></path></g></g><g transform="matrix(0.5,-0.8660253882408142,0.8660253882408142,0.5,375,248)" opacity="0.9998637649205526" style="display: block;"><g opacity="1" transform="matrix(1,0,0,1,0,0)"><path stroke-linecap="butt" stroke-linejoin="miter" fill-opacity="0" stroke-miterlimit="4" stroke="rgb(254,254,254)" stroke-opacity="1" stroke-width="1.0134872728652908" d=" M155.98899841308594,-140.50900268554688 C189.5449981689453,-103.28600311279297 209.98199462890625,-54.0099983215332 209.98199462890625,0 C209.98228454589844,115.88922119140625 115.88922119140625,209.98228454589844 0,209.98228454589844 C-14.954999923706055,209.98199462890625 -29.547000885009766,208.4149932861328 -43.62099838256836,205.43699645996094"></path></g></g><g transform="matrix(0.5,-0.8660253882408142,0.8660253882408142,0.5,375,248)" opacity="0.9866756608656719" style="display: block;"><g opacity="1" transform="matrix(1,0,0,1,0,0)"><path stroke-linecap="butt" stroke-linejoin="miter" fill-opacity="0" stroke-miterlimit="4" stroke="rgb(227,233,245)" stroke-opacity="1" stroke-width="2.31910957429848" d=" M43.263999938964844,203.75999450683594 C29.305999755859375,206.71400451660156 14.833000183105469,208.26800537109375 0,208.26800537109375 C-114.9430160522461,208.26783752441406 -208.26783752441406,114.9430160522461 -208.26783752441406,0 C-208.26800537109375,-53.569000244140625 -187.9980010986328,-102.44300079345703 -154.71600341796875,-139.36199951171875"></path></g></g><g transform="matrix(2,0,0,2,373.95599365234375,254.15599060058594)" opacity="1" style="display: block;"><g opacity="1" transform="matrix(1.4506700038909912,0,0,1.4506700038909912,0,0)"><path fill="rgb(29,117,189)" fill-opacity="1" d=" M0,-35 C0,-35 30.5,-25.950000762939453 30.5,-25.950000762939453 C30.5,-24.270000457763672 29.65999984741211,-15.819999694824219 27.989999771118164,-0.5699999928474426 C26.31999969482422,14.670000076293945 16.989999771118164,26.530000686645508 0,35 C-16.989999771118164,26.530000686645508 -26.31999969482422,14.670000076293945 -27.989999771118164,-0.5699999928474426 C-29.65999984741211,-15.819999694824219 -30.5,-24.270000457763672 -30.5,-25.950000762939453 C-30.5,-25.950000762939453 0,-35 0,-35 C0,-35 0,-35 0,-35z"></path><path stroke-linecap="butt" stroke-linejoin="miter" fill-opacity="0" stroke-miterlimit="4" stroke="rgb(168,189,224)" stroke-opacity="1" stroke-width="1" d=" M0,-35 C0,-35 30.5,-25.950000762939453 30.5,-25.950000762939453 C30.5,-24.270000457763672 29.65999984741211,-15.819999694824219 27.989999771118164,-0.5699999928474426 C26.31999969482422,14.670000076293945 16.989999771118164,26.530000686645508 0,35 C-16.989999771118164,26.530000686645508 -26.31999969482422,14.670000076293945 -27.989999771118164,-0.5699999928474426 C-29.65999984741211,-15.819999694824219 -30.5,-24.270000457763672 -30.5,-25.950000762939453 C-30.5,-25.950000762939453 0,-35 0,-35 C0,-35 0,-35 0,-35z"></path></g></g><g transform="matrix(2,0,0,2,411.67401123046875,254.15599060058594)" opacity="0.5" style="display: block;"><g opacity="1" transform="matrix(1.4506700038909912,0,0,1.4506700038909912,0,0)"><path fill="rgb(75,87,112)" fill-opacity="1" d=" M-12.5,-29 C-12.5,-29 12.5,-21.610000610351562 12.5,-21.610000610351562 C12.5,-19.65999984741211 11.8100004196167,-12.470000267028809 10.4399995803833,-0.029999999329447746 C9.0600004196167,12.40999984741211 1.4199999570846558,22.09000015258789 -12.5,29 C-12.5,29 -12.5,-29 -12.5,-29z"></path></g></g><g transform="matrix(2,0,0,2,375.4079895019531,254.15599060058594)" opacity="0.4" style="display: block;"><g opacity="1" transform="matrix(1.4506700038909912,0,0,1.4506700038909912,0,0)"><path fill="rgb(70,81,102)" fill-opacity="1" d=" M0,-29 C0,-29 25,-21.610000610351562 25,-21.610000610351562 C25,-19.65999984741211 24.309999465942383,-12.470000267028809 22.940000534057617,-0.029999999329447746 C21.559999465942383,12.40999984741211 13.920000076293945,22.09000015258789 0,29 C-13.920000076293945,22.09000015258789 -21.559999465942383,12.40999984741211 -22.940000534057617,-0.029999999329447746 C-24.309999465942383,-12.470000267028809 -25,-19.65999984741211 -25,-21.610000610351562 C-25,-21.610000610351562 0,-29 0,-29 C0,-29 0,-29 0,-29z"></path><path stroke-linecap="butt" stroke-linejoin="miter" fill-opacity="0" stroke-miterlimit="4" stroke="rgb(150,175,218)" stroke-opacity="1" stroke-width="0.5" d=" M0,-29 C0,-29 25,-21.610000610351562 25,-21.610000610351562 C25,-19.65999984741211 24.309999465942383,-12.470000267028809 22.940000534057617,-0.029999999329447746 C21.559999465942383,12.40999984741211 13.920000076293945,22.09000015258789 0,29 C-13.920000076293945,22.09000015258789 -21.559999465942383,12.40999984741211 -22.940000534057617,-0.029999999329447746 C-24.309999465942383,-12.470000267028809 -25,-19.65999984741211 -25,-21.610000610351562 C-25,-21.610000610351562 0,-29 0,-29 C0,-29 0,-29 0,-29z"></path></g></g><g transform="matrix(0.8838834762573242,-0.8838834762573242,0.8838834762573242,0.8838834762573242,373.5,239.5)" opacity="1" style="display: block;"><g opacity="1" transform="matrix(1,0,0,1,0,0)"><path stroke-linecap="butt" stroke-linejoin="miter" fill-opacity="0" stroke-miterlimit="4" stroke="rgb(253,254,255)" stroke-opacity="1" stroke-width="8" d=" M-13,-11 C-13,-11 -13,11 -13,11 C-13,11 29,11 29,11"></path></g></g><g transform="matrix(1,0,0,1,368,425.75)" opacity="1" style="display: block;"><g opacity="1" transform="matrix(2,0,0,2,0,0)"><path fill="rgb(29,117,189)" fill-opacity="1" d=" M-57.380001068115234,17.542999267578125 C-59.04999923706055,17.542999267578125 -60.720001220703125,17.39299964904785 -62.369998931884766,17.093000411987305 C-62.369998931884766,17.093000411987305 -63.25,16.933000564575195 -63.25,16.933000564575195 C-64.30000305175781,16.732999801635742 -65.30999755859375,16.322999954223633 -66.19999694824219,15.722999572753906 C-66.19999694824219,15.722999572753906 -66.94999694824219,15.222999572753906 -66.94999694824219,15.222999572753906 C-67.30000305175781,14.982999801635742 -67.44000244140625,14.532999992370605 -67.27999877929688,14.142999649047852 C-67.27999877929688,14.142999649047852 -66.6500015258789,12.532999992370605 -66.6500015258789,12.532999992370605 C-66.6500015258789,12.532999992370605 -66.6500015258789,11.623000144958496 -66.6500015258789,11.623000144958496 C-66.6500015258789,11.623000144958496 -67.87999725341797,9.482999801635742 -67.87999725341797,9.482999801635742 C-67.95999908447266,9.343000411987305 -68,9.192999839782715 -68,9.032999992370605 C-68,9.032999992370605 -68,8.343000411987305 -68,8.343000411987305 C-68,8.11299991607666 -67.91999816894531,7.89300012588501 -67.76000213623047,7.732999801635742 C-67.27999877929688,7.203000068664551 -66.91000366210938,6.683000087738037 -66.6500015258789,6.163000106811523 C-66.19999694824219,5.243000030517578 -65.75,2.9730000495910645 -65.30000305175781,2.062999963760376 C-64.8499984741211,1.1430000066757202 -63.5,-0.6769999861717224 -57.63999938964844,-2.0369999408721924 C-51.790000915527344,-3.4070000648498535 -40.529998779296875,-4.986999988555908 -33.31999969482422,-5.686999797821045 C-26.1200008392334,-6.38700008392334 -24.770000457763672,-9.246999740600586 -16.209999084472656,-13.427000045776367 C-7.659999847412109,-17.617000579833984 4.050000190734863,-18.136999130249023 19.809999465942383,-17.07699966430664 C29.93000030517578,-16.39699935913086 39.77000045776367,-13.416999816894531 49.33000183105469,-8.126999855041504 C50.08000183105469,-7.7170000076293945 50.900001525878906,-7.436999797821045 51.75,-7.307000160217285 C51.75,-7.307000160217285 59.75,-6.117000102996826 59.75,-6.117000102996826 C61.529998779296875,-5.8470001220703125 63.060001373291016,-4.706999778747559 63.83000183105469,-3.0869998931884766 C63.83000183105469,-3.0869998931884766 67.83000183105469,5.333000183105469 67.83000183105469,5.333000183105469 C67.94000244140625,5.572999954223633 68,5.8429999351501465 68,6.11299991607666 C68,6.11299991607666 68,10.572999954223633 68,10.572999954223633 C68,11.352999687194824 67.5,12.043000221252441 66.7699966430664,12.282999992370605 C66.7699966430664,12.282999992370605 51.439998626708984,17.363000869750977 51.439998626708984,17.363000869750977 C51.06999969482422,17.482999801635742 50.689998626708984,17.542999267578125 50.310001373291016,17.542999267578125 C50.310001373291016,17.542999267578125 -57.380001068115234,17.542999267578125 -57.380001068115234,17.542999267578125z"></path><path stroke-linecap="butt" stroke-linejoin="miter" fill-opacity="0" stroke-miterlimit="4" stroke="rgb(150,175,218)" stroke-opacity="1" stroke-width="0.5" d=" M-57.380001068115234,17.542999267578125 C-59.04999923706055,17.542999267578125 -60.720001220703125,17.39299964904785 -62.369998931884766,17.093000411987305 C-62.369998931884766,17.093000411987305 -63.25,16.933000564575195 -63.25,16.933000564575195 C-64.30000305175781,16.732999801635742 -65.30999755859375,16.322999954223633 -66.19999694824219,15.722999572753906 C-66.19999694824219,15.722999572753906 -66.94999694824219,15.222999572753906 -66.94999694824219,15.222999572753906 C-67.30000305175781,14.982999801635742 -67.44000244140625,14.532999992370605 -67.27999877929688,14.142999649047852 C-67.27999877929688,14.142999649047852 -66.6500015258789,12.532999992370605 -66.6500015258789,12.532999992370605 C-66.6500015258789,12.532999992370605 -66.6500015258789,11.623000144958496 -66.6500015258789,11.623000144958496 C-66.6500015258789,11.623000144958496 -67.87999725341797,9.482999801635742 -67.87999725341797,9.482999801635742 C-67.95999908447266,9.343000411987305 -68,9.192999839782715 -68,9.032999992370605 C-68,9.032999992370605 -68,8.343000411987305 -68,8.343000411987305 C-68,8.11299991607666 -67.91999816894531,7.89300012588501 -67.76000213623047,7.732999801635742 C-67.27999877929688,7.203000068664551 -66.91000366210938,6.683000087738037 -66.6500015258789,6.163000106811523 C-66.19999694824219,5.243000030517578 -65.75,2.9730000495910645 -65.30000305175781,2.062999963760376 C-64.8499984741211,1.1430000066757202 -63.5,-0.6769999861717224 -57.63999938964844,-2.0369999408721924 C-51.790000915527344,-3.4070000648498535 -40.529998779296875,-4.986999988555908 -33.31999969482422,-5.686999797821045 C-26.1200008392334,-6.38700008392334 -24.770000457763672,-9.246999740600586 -16.209999084472656,-13.427000045776367 C-7.659999847412109,-17.617000579833984 4.050000190734863,-18.136999130249023 19.809999465942383,-17.07699966430664 C29.93000030517578,-16.39699935913086 39.77000045776367,-13.416999816894531 49.33000183105469,-8.126999855041504 C50.08000183105469,-7.7170000076293945 50.900001525878906,-7.436999797821045 51.75,-7.307000160217285 C51.75,-7.307000160217285 59.75,-6.117000102996826 59.75,-6.117000102996826 C61.529998779296875,-5.8470001220703125 63.060001373291016,-4.706999778747559 63.83000183105469,-3.0869998931884766 C63.83000183105469,-3.0869998931884766 67.83000183105469,5.333000183105469 67.83000183105469,5.333000183105469 C67.94000244140625,5.572999954223633 68,5.8429999351501465 68,6.11299991607666 C68,6.11299991607666 68,10.572999954223633 68,10.572999954223633 C68,11.352999687194824 67.5,12.043000221252441 66.7699966430664,12.282999992370605 C66.7699966430664,12.282999992370605 51.439998626708984,17.363000869750977 51.439998626708984,17.363000869750977 C51.06999969482422,17.482999801635742 50.689998626708984,17.542999267578125 50.310001373291016,17.542999267578125 C50.310001373291016,17.542999267578125 -57.380001068115234,17.542999267578125 -57.380001068115234,17.542999267578125z"></path></g></g><g mask="url(#__lottie_element_3938_1)" style="display: block;"><g transform="matrix(1,0,0,1,493.6419982910156,426.35601806640625)" opacity="0.3"><g opacity="1" transform="matrix(2,0,0,2,0,0)"><path fill="rgb(150,175,218)" fill-opacity="1" d=" M2.930999994277954,-1.3700000047683716 C2.930999994277954,-1.3700000047683716 2.0309998989105225,-3.190000057220459 0.6710000038146973,-3.640000104904175 C-0.6790000200271606,-4.099999904632568 -2.928999900817871,-4.099999904632568 -2.928999900817871,-4.099999904632568 C-2.928999900817871,-4.099999904632568 -5.629000186920166,-2.2799999713897705 -5.629000186920166,-2.2799999713897705 C-5.629000186920166,-2.2799999713897705 5.63100004196167,4.099999904632568 5.63100004196167,4.099999904632568 C5.63100004196167,4.099999904632568 2.930999994277954,-1.3700000047683716 2.930999994277954,-1.3700000047683716z"></path></g></g></g><g mask="url(#__lottie_element_3944_1)" style="display: block;"><g transform="matrix(1,0,0,1,243.8209991455078,429.0889892578125)" opacity="0.3"><g opacity="1" transform="matrix(2,0,0,2,0,0)"><path fill="rgb(150,175,218)" fill-opacity="1" d=" M-5.010000228881836,-2.2730000019073486 C-5.010000228881836,-2.2730000019073486 -0.05999999865889549,-2.7330000400543213 2.200000047683716,-2.7330000400543213 C4.449999809265137,-2.7330000400543213 5.349999904632568,-2.683000087738037 4.900000095367432,-1.7929999828338623 C4.449999809265137,-0.9129999876022339 1.2899999618530273,1.8270000219345093 -0.05999999865889549,2.2769999504089355 C-1.409999966621399,2.736999988555908 -4.110000133514404,2.736999988555908 -4.110000133514404,2.736999988555908 C-4.110000133514404,2.736999988555908 -5.010000228881836,-2.2730000019073486 -5.010000228881836,-2.2730000019073486z"></path></g></g></g><g transform="matrix(1,0,0,1,374.9849853515625,406.0979919433594)" opacity="1" style="display: block;"><g opacity="1" transform="matrix(2,0,0,2,0,0)"><path stroke-linecap="round" stroke-linejoin="round" fill-opacity="0" stroke="rgb(150,175,218)" stroke-opacity="1" stroke-width="0.5" d=" M-32.75699996948242,6.031000137329102 C-24.656999588012695,0.8610000014305115 -18.35700035095215,-2.4790000915527344 -13.847000122070312,-3.989000082015991 C-7.0970001220703125,-6.269000053405762 5.513000011444092,-6.729000091552734 16.773000717163086,-4.908999919891357 C23.913000106811523,-3.749000072479248 29.21299934387207,-1.0490000247955322 32.65299987792969,3.2009999752044678 C32.7130012512207,3.2709999084472656 32.75299835205078,3.3610000610351562 32.75299835205078,3.4509999752044678 C32.77299880981445,3.7009999752044678 32.58300018310547,3.9110000133514404 32.33300018310547,3.930999994277954 C32.33300018310547,3.930999994277954 32.33300018310547,3.930999994277954 32.33300018310547,3.930999994277954 C29.652999877929688,4.111000061035156 23.113000869750977,4.210999965667725 12.722999572753906,4.210999965667725 C1.0130000114440918,4.210999965667725 -14.147000312805176,4.810999870300293 -32.75699996948242,6.031000137329102z"></path><path fill="rgb(51,60,78)" fill-opacity="1" d=" M-32.75699996948242,6.031000137329102 C-24.656999588012695,0.8610000014305115 -18.35700035095215,-2.4790000915527344 -13.847000122070312,-3.989000082015991 C-7.0970001220703125,-6.269000053405762 5.513000011444092,-6.729000091552734 16.773000717163086,-4.908999919891357 C23.913000106811523,-3.749000072479248 29.21299934387207,-1.0490000247955322 32.65299987792969,3.2009999752044678 C32.7130012512207,3.2709999084472656 32.75299835205078,3.3610000610351562 32.75299835205078,3.4509999752044678 C32.77299880981445,3.7009999752044678 32.58300018310547,3.9110000133514404 32.33300018310547,3.930999994277954 C32.33300018310547,3.930999994277954 32.33300018310547,3.930999994277954 32.33300018310547,3.930999994277954 C29.652999877929688,4.111000061035156 23.113000869750977,4.210999965667725 12.722999572753906,4.210999965667725 C1.0130000114440918,4.210999965667725 -14.147000312805176,4.810999870300293 -32.75699996948242,6.031000137329102z"></path></g></g><g transform="matrix(1,0,0,1,370.66497802734375,404.7139892578125)" opacity="1" style="display: block;"><g opacity="1" transform="matrix(2,0,0,2,0,0)"><path stroke-linecap="butt" stroke-linejoin="round" fill-opacity="0" stroke="rgb(150,175,218)" stroke-opacity="1" stroke-width="0.5" d=" M0.878000020980835,-5.354000091552734 C0.878000020980835,-5.354000091552734 -0.8820000290870667,5.355999946594238 -0.8820000290870667,5.355999946594238"></path></g></g><g transform="matrix(1,0,0,1,358.093017578125,454.2359924316406)" opacity="0.4" style="display: block;"><g opacity="1" transform="matrix(2,0,0,2,0,0)"><path stroke-linecap="round" stroke-linejoin="round" fill-opacity="0" stroke="rgb(150,175,218)" stroke-opacity="1" stroke-width="0.5" d=" M-32.42399978637695,0.7310000061988831 C-32.42399978637695,0.7310000061988831 32.42599868774414,-0.7289999723434448 32.42599868774414,-0.7289999723434448"></path></g></g><g transform="matrix(1,0,0,1,486.43701171875,446.3999938964844)" opacity="0.4" style="display: block;"><g opacity="1" transform="matrix(2,0,0,2,0,0)"><path stroke-linecap="round" stroke-linejoin="round" fill-opacity="0" stroke="rgb(150,175,218)" stroke-opacity="1" stroke-width="0.5" d=" M-6.980000019073486,1.3630000352859497 C-6.980000019073486,1.3630000352859497 6.980000019073486,-1.3669999837875366 6.980000019073486,-1.3669999837875366"></path></g></g><g transform="matrix(1,0,0,1,269.8280029296875,450)" opacity="1" style="display: block;"><g opacity="1" transform="matrix(2,0,0,2,0,0)"><path fill="rgb(39,46,62)" fill-opacity="1" d=" M0.003000000026077032,10.017999649047852 C5.4730000495910645,10.017999649047852 9.902999877929688,5.538000106811523 9.902999877929688,-0.0020000000949949026 C9.902999877929688,-5.5320000648498535 5.4730000495910645,-10.022000312805176 0.003000000026077032,-10.022000312805176 C-5.4670000076293945,-10.022000312805176 -9.906999588012695,-5.5320000648498535 -9.906999588012695,-0.0020000000949949026 C-9.906999588012695,5.538000106811523 -5.4670000076293945,10.017999649047852 0.003000000026077032,10.017999649047852z"></path><path stroke-linecap="butt" stroke-linejoin="miter" fill-opacity="0" stroke-miterlimit="4" stroke="rgb(150,175,218)" stroke-opacity="1" stroke-width="0.5" d=" M0.003000000026077032,10.017999649047852 C5.4730000495910645,10.017999649047852 9.902999877929688,5.538000106811523 9.902999877929688,-0.0020000000949949026 C9.902999877929688,-5.5320000648498535 5.4730000495910645,-10.022000312805176 0.003000000026077032,-10.022000312805176 C-5.4670000076293945,-10.022000312805176 -9.906999588012695,-5.5320000648498535 -9.906999588012695,-0.0020000000949949026 C-9.906999588012695,5.538000106811523 -5.4670000076293945,10.017999649047852 0.003000000026077032,10.017999649047852z"></path></g></g><g transform="matrix(1,0,0,1,269.8280029296875,450)" opacity="1" style="display: block;"><g opacity="1" transform="matrix(2,0,0,2,0,0)"><path fill="rgb(150,175,218)" fill-opacity="1" d=" M-0.004000000189989805,5.4629998207092285 C2.9860000610351562,5.4629998207092285 5.406000137329102,3.0230000019073486 5.406000137329102,0.003000000026077032 C5.406000137329102,-3.0169999599456787 2.9860000610351562,-5.4670000076293945 -0.004000000189989805,-5.4670000076293945 C-2.9839999675750732,-5.4670000076293945 -5.4039998054504395,-3.0169999599456787 -5.4039998054504395,0.003000000026077032 C-5.4039998054504395,3.0230000019073486 -2.9839999675750732,5.4629998207092285 -0.004000000189989805,5.4629998207092285z"></path></g></g><g transform="matrix(1,0,0,1,448.15899658203125,450)" opacity="1" style="display: block;"><g opacity="1" transform="matrix(2,0,0,2,0,0)"><path fill="rgb(39,46,62)" fill-opacity="1" d=" M0.003000000026077032,10.017999649047852 C5.4730000495910645,10.017999649047852 9.902999877929688,5.538000106811523 9.902999877929688,-0.0020000000949949026 C9.902999877929688,-5.5320000648498535 5.4730000495910645,-10.022000312805176 0.003000000026077032,-10.022000312805176 C-5.4670000076293945,-10.022000312805176 -9.906999588012695,-5.5320000648498535 -9.906999588012695,-0.0020000000949949026 C-9.906999588012695,5.538000106811523 -5.4670000076293945,10.017999649047852 0.003000000026077032,10.017999649047852z"></path><path stroke-linecap="butt" stroke-linejoin="miter" fill-opacity="0" stroke-miterlimit="4" stroke="rgb(150,175,218)" stroke-opacity="1" stroke-width="0.5" d=" M0.003000000026077032,10.017999649047852 C5.4730000495910645,10.017999649047852 9.902999877929688,5.538000106811523 9.902999877929688,-0.0020000000949949026 C9.902999877929688,-5.5320000648498535 5.4730000495910645,-10.022000312805176 0.003000000026077032,-10.022000312805176 C-5.4670000076293945,-10.022000312805176 -9.906999588012695,-5.5320000648498535 -9.906999588012695,-0.0020000000949949026 C-9.906999588012695,5.538000106811523 -5.4670000076293945,10.017999649047852 0.003000000026077032,10.017999649047852z"></path></g></g><g transform="matrix(1,0,0,1,448.15899658203125,450)" opacity="1" style="display: block;"><g opacity="1" transform="matrix(2,0,0,2,0,0)"><path fill="rgb(150,175,218)" fill-opacity="1" d=" M-0.004000000189989805,5.4629998207092285 C2.9860000610351562,5.4629998207092285 5.406000137329102,3.0230000019073486 5.406000137329102,0.003000000026077032 C5.406000137329102,-3.0169999599456787 2.9860000610351562,-5.4670000076293945 -0.004000000189989805,-5.4670000076293945 C-2.9839999675750732,-5.4670000076293945 -5.4039998054504395,-3.0169999599456787 -5.4039998054504395,0.003000000026077032 C-5.4039998054504395,3.0230000019073486 -2.9839999675750732,5.4629998207092285 -0.004000000189989805,5.4629998207092285z"></path></g></g></g></svg>