<svg xmlns="http://www.w3.org/2000/svg" xmlns:xlink="http://www.w3.org/1999/xlink" viewBox="0 0 1000 1000" width="1000" height="1000" preserveAspectRatio="xMidYMid meet" style="width: 100%; height: 100%; transform: translate3d(0px, 0px, 0px); content-visibility: visible;"><defs><clipPath id="__lottie_element_990"><rect width="1000" height="1000" x="0" y="0"></rect></clipPath><clipPath id="__lottie_element_1003"><path d="M0,0 L200,0 L200,300 L0,300z"></path></clipPath></defs><g clip-path="url(#__lottie_element_990)"><g transform="matrix(1,0,0,1,365.33599853515625,303.83697509765625)" opacity="1" style="display: block;"><g opacity="1" transform="matrix(1,0,0,1,135.25,169)"><path fill="rgb(242,242,242)" fill-opacity="1" d=" M118.125,168.75 C118.125,168.75 -118.125,168.75 -118.125,168.75 C-127.44499969482422,168.75 -135,161.19400024414062 -135,151.875 C-135,151.875 -135,-151.875 -135,-151.875 C-135,-161.19500732421875 -127.44499969482422,-168.75 -118.125,-168.75 C-118.125,-168.75 118.125,-168.75 118.125,-168.75 C127.44400024414062,-168.75 135,-161.19500732421875 135,-151.875 C135,-151.875 135,151.875 135,151.875 C135,161.19400024414062 127.44400024414062,168.75 118.125,168.75z"></path></g></g><g transform="matrix(1,0,0,1,409.6199951171875,389.71697998046875)" opacity="1" style="display: block;"><g opacity="1" transform="matrix(1,0,0,1,0,0)"><path stroke-linecap="butt" stroke-linejoin="miter" fill-opacity="0" stroke-miterlimit="10" stroke="rgb(108,120,156)" stroke-opacity="1" stroke-width="16.875" d=" M8.437999725341797,8.437999725341797 C8.437999725341797,8.437999725341797 53.987998962402344,8.437999725341797 53.987998962402344,8.437999725341797"></path></g><g opacity="1" transform="matrix(1,0,0,1,0,0)"><path stroke-linecap="butt" stroke-linejoin="miter" fill-opacity="0" stroke-miterlimit="10" stroke="rgb(108,120,156)" stroke-opacity="1" stroke-width="10.187" d=" M91.08000183105469,142.08799743652344 C91.08000183105469,142.08799743652344 175.4550018310547,142.08799743652344 175.4550018310547,142.08799743652344"></path></g><g opacity="1" transform="matrix(1,0,0,1,0,0)"><path stroke-linecap="butt" stroke-linejoin="miter" fill-opacity="0" stroke-miterlimit="10" stroke="rgb(108,120,156)" stroke-opacity="1" stroke-width="10.3" d=" M8.437999725341797,108.79299926757812 C8.437999725341797,108.79299926757812 177.18800354003906,108.79299926757812 177.18800354003906,108.79299926757812"></path></g><g opacity="1" transform="matrix(1,0,0,1,0,0)"><path stroke-linecap="butt" stroke-linejoin="miter" fill-opacity="0" stroke-miterlimit="10" stroke="rgb(108,120,156)" stroke-opacity="1" stroke-width="10.376" d=" M8.437999725341797,74.62899780273438 C8.437999725341797,74.62899780273438 177.18800354003906,74.62899780273438 177.18800354003906,74.62899780273438"></path></g><g opacity="1" transform="matrix(1,0,0,1,0,0)"><path stroke-linecap="butt" stroke-linejoin="miter" fill-opacity="0" stroke-miterlimit="10" stroke="rgb(108,120,156)" stroke-opacity="1" stroke-width="10.262" d=" M8.437999725341797,40.8380012512207 C8.437999725341797,40.8380012512207 177.18800354003906,40.8380012512207 177.18800354003906,40.8380012512207"></path></g></g><g clip-path="url(#__lottie_element_1003)" transform="matrix(1,0,0,1,454,472)" opacity="1" style="display: block;"><g transform="matrix(1,0,0,1,51.55699920654297,74.4219970703125)" opacity="1" style="display: block;"><g opacity="1" transform="matrix(1,0,0,1,48.44300079345703,99.24299621582031)"><path fill="rgb(49,196,141)" fill-opacity="1" d=" M-24,-48 C-24,-48 -24,48 -24,48 C-24,48 -0.019999999552965164,23.351999282836914 -0.019999999552965164,23.351999282836914 C-0.019999999552965164,23.351999282836914 24,48 24,48 C24,48 24,-48 24,-48 C24,-48 -24,-48 -24,-48z"></path></g><g opacity="1" transform="matrix(1,0,0,1,48.42399978637695,91.93800354003906)"><path fill="rgb(29,130,91)" fill-opacity="1" d=" M0.0010000000474974513,-40.69599914550781 C0.0010000000474974513,-40.69599914550781 -9.767000198364258,-40.69599914550781 -9.767000198364258,-40.69599914550781 C-9.767000198364258,-40.69599914550781 -9.767000198364258,40.69499969482422 -9.767000198364258,40.69499969482422 C-9.767000198364258,40.69499969482422 0.0010000000474974513,30.6560001373291 0.0010000000474974513,30.6560001373291 C0.0010000000474974513,30.6560001373291 9.767000198364258,40.69499969482422 9.767000198364258,40.69499969482422 C9.767000198364258,40.69499969482422 9.767000198364258,-40.69599914550781 9.767000198364258,-40.69599914550781 C9.767000198364258,-40.69599914550781 0.0010000000474974513,-40.69599914550781 0.0010000000474974513,-40.69599914550781z"></path></g></g><g transform="matrix(1,0,0,1,51.55699920654297,74.4219970703125)" opacity="1" style="display: block;"><g opacity="1" transform="matrix(1,0,0,1,48.44300079345703,43.91299819946289)"><path fill="rgb(50,196,141)" fill-opacity="1" d=" M40,0 C40,22.091999053955078 22.091999053955078,40 0,40 C-22.090999603271484,40 -40,22.091999053955078 -40,0 C-40,-22.091999053955078 -22.090999603271484,-40 0,-40 C22.091999053955078,-40 40,-22.091999053955078 40,0z"></path></g></g><g transform="matrix(1,0,0,1,51.55699920654297,74.4219970703125)" opacity="1" style="display: block;"><g opacity="1" transform="matrix(1,0,0,1,50,43.91299819946289)"><path stroke-linecap="butt" stroke-linejoin="miter" fill-opacity="0" stroke-miterlimit="10" stroke="rgb(255,255,255)" stroke-opacity="1" stroke-width="12" d=" M-20,1.4019999504089355 C-20,1.4019999504089355 -7.9679999351501465,13.913000106811523 -7.9679999351501465,13.913000106811523 C-7.9679999351501465,13.913000106811523 20,-13.913000106811523 20,-13.913000106811523"></path></g></g></g></g></svg>