<svg xmlns="http://www.w3.org/2000/svg" xmlns:xlink="http://www.w3.org/1999/xlink" viewBox="0 0 512 512" width="512" height="512" preserveAspectRatio="xMidYMid meet" style="width: 100%; height: 100%; transform: translate3d(0px, 0px, 0px); content-visibility: visible;"><defs><clipPath id="__lottie_element_2014"><rect width="512" height="512" x="0" y="0"></rect></clipPath></defs><g clip-path="url(#__lottie_element_2014)"><g transform="matrix(-1.4287892580032349,0.720112144947052,-0.720112144947052,-1.4287892580032349,256,256)" opacity="0.6" style="display: block;"><g opacity="1" transform="matrix(1,0,0,1,0,0)"><path fill="rgb(32,38,43)" fill-opacity="1" d=" M6.735557292171729e-15,-110 C12.95906925201416,-110 18.203413009643555,-99.23157501220703 30.90169906616211,-95.10565185546875 C43.5999870300293,-90.97972869873047 54.172271728515625,-96.60901641845703 64.65637969970703,-88.99186706542969 C75.14048767089844,-81.37471771240234 73.05372619628906,-69.58032989501953 80.90170288085938,-58.778526306152344 C88.74967193603516,-47.97671890258789 100.61164093017578,-46.31667709350586 104.61621856689453,-33.99187088012695 C108.62078857421875,-21.66706085205078 100,-13.351768493652344 100,0 C100,13.351768493652344 108.62078857421875,21.66706085205078 104.61621856689453,33.99187088012695 C100.61164093017578,46.31667709350586 88.74967193603516,47.97671890258789 80.90170288085938,58.778526306152344 C73.05372619628906,69.58032989501953 75.14048767089844,81.37471771240234 64.65637969970703,88.99186706542969 C54.172271728515625,96.60901641845703 43.5999870300293,90.97972869873047 30.90169906616211,95.10565185546875 C18.203413009643555,99.23157501220703 12.95906925201416,110 6.735557292171729e-15,110 C-12.95906925201416,110 -18.203413009643555,99.23157501220703 -30.90169906616211,95.10565185546875 C-43.5999870300293,90.97972869873047 -54.172271728515625,96.60901641845703 -64.65637969970703,88.99186706542969 C-75.14048767089844,81.37471771240234 -73.05372619628906,69.58032989501953 -80.90170288085938,58.778526306152344 C-88.74967193603516,47.97671890258789 -100.61164093017578,46.31667709350586 -104.61621856689453,33.99187088012695 C-108.62078857421875,21.66706085205078 -100,13.351768493652344 -100,1.2246467572939613e-14 C-100,-13.351768493652344 -108.62078857421875,-21.66706085205078 -104.61621856689453,-33.99187088012695 C-100.61164093017578,-46.31667709350586 -88.74967193603516,-47.97671890258789 -80.90170288085938,-58.778526306152344 C-73.05372619628906,-69.58032989501953 -75.14048767089844,-81.37471771240234 -64.65637969970703,-88.99186706542969 C-54.172271728515625,-96.60901641845703 -43.5999870300293,-90.97972869873047 -30.90169906616211,-95.10565185546875 C-18.203413009643555,-99.23157501220703 -12.95906925201416,-110 6.735557292171729e-15,-110z"></path></g></g><g transform="matrix(-0.44082650542259216,1.5380741357803345,-1.5380741357803345,-0.44082650542259216,256,256)" opacity="0.6" style="display: block;"><g opacity="1" transform="matrix(1,0,0,1,0,0)"><path fill="rgb(32,38,43)" fill-opacity="1" d=" M6.735557292171729e-15,-110 C12.95906925201416,-110 18.203413009643555,-99.23157501220703 30.90169906616211,-95.10565185546875 C43.5999870300293,-90.97972869873047 54.172271728515625,-96.60901641845703 64.65637969970703,-88.99186706542969 C75.14048767089844,-81.37471771240234 73.05372619628906,-69.58032989501953 80.90170288085938,-58.778526306152344 C88.74967193603516,-47.97671890258789 100.61164093017578,-46.31667709350586 104.61621856689453,-33.99187088012695 C108.62078857421875,-21.66706085205078 100,-13.351768493652344 100,0 C100,13.351768493652344 108.62078857421875,21.66706085205078 104.61621856689453,33.99187088012695 C100.61164093017578,46.31667709350586 88.74967193603516,47.97671890258789 80.90170288085938,58.778526306152344 C73.05372619628906,69.58032989501953 75.14048767089844,81.37471771240234 64.65637969970703,88.99186706542969 C54.172271728515625,96.60901641845703 43.5999870300293,90.97972869873047 30.90169906616211,95.10565185546875 C18.203413009643555,99.23157501220703 12.95906925201416,110 6.735557292171729e-15,110 C-12.95906925201416,110 -18.203413009643555,99.23157501220703 -30.90169906616211,95.10565185546875 C-43.5999870300293,90.97972869873047 -54.172271728515625,96.60901641845703 -64.65637969970703,88.99186706542969 C-75.14048767089844,81.37471771240234 -73.05372619628906,69.58032989501953 -80.90170288085938,58.778526306152344 C-88.74967193603516,47.97671890258789 -100.61164093017578,46.31667709350586 -104.61621856689453,33.99187088012695 C-108.62078857421875,21.66706085205078 -100,13.351768493652344 -100,1.2246467572939613e-14 C-100,-13.351768493652344 -108.62078857421875,-21.66706085205078 -104.61621856689453,-33.99187088012695 C-100.61164093017578,-46.31667709350586 -88.74967193603516,-47.97671890258789 -80.90170288085938,-58.778526306152344 C-73.05372619628906,-69.58032989501953 -75.14048767089844,-81.37471771240234 -64.65637969970703,-88.99186706542969 C-54.172271728515625,-96.60901641845703 -43.5999870300293,-90.97972869873047 -30.90169906616211,-95.10565185546875 C-18.203413009643555,-99.23157501220703 -12.95906925201416,-110 6.735557292171729e-15,-110z"></path></g></g><g transform="matrix(1,0,0,1,184.39300537109375,199.5)" opacity="1" style="display: block;"><g opacity="1" transform="matrix(1,0,0,1,72.88899993896484,56.89699935913086)"><path fill="rgb(217,223,230)" fill-opacity="1" d=" M-28.107999801635742,56.64699935913086 C-31.319000244140625,56.64699935913086 -34.53099822998047,55.42100143432617 -36.983001708984375,52.96900177001953 C-36.983001708984375,52.96900177001953 -67.73600006103516,22.215999603271484 -67.73600006103516,22.215999603271484 C-72.63899993896484,17.316999435424805 -72.63899993896484,9.366999626159668 -67.73600006103516,4.4670000076293945 C-62.83300018310547,-0.4359999895095825 -54.88999938964844,-0.4359999895095825 -49.98699951171875,4.4670000076293945 C-49.98699951171875,4.4670000076293945 -28.107999801635742,26.347000122070312 -28.107999801635742,26.347000122070312 C-28.107999801635742,26.347000122070312 49.98699951171875,-51.744998931884766 49.98699951171875,-51.744998931884766 C54.89099884033203,-56.64699935913086 62.83300018310547,-56.64699935913086 67.73600006103516,-51.744998931884766 C72.63899993896484,-46.84199905395508 72.63899993896484,-38.89500045776367 67.73600006103516,-33.99599838256836 C67.73600006103516,-33.99599838256836 -19.233999252319336,52.96900177001953 -19.233999252319336,52.96900177001953 C-21.684999465942383,55.42100143432617 -24.89699935913086,56.64699935913086 -28.107999801635742,56.64699935913086z"></path></g></g></g></svg>